<svg width="134" height="48" viewBox="0 0 134 48" xmlns="http://www.w3.org/2000/svg">
  <path fill-rule="evenodd" clip-rule="evenodd" d="M63.3987 4.52823C64.5541 2.51695 65.1318 1.51131 66 1.51131C66.8682 1.51131 67.4459 2.51695 68.6013 4.52823L88.1746 38.6002C90.1502 42.0393 91.1381 43.7589 90.3851 44.5687C89.6322 45.3785 87.8454 44.5182 84.2718 42.7975L69.4705 35.671C67.7654 34.85 66.9128 34.4395 66 34.4395C65.0872 34.4395 64.2346 34.85 62.5295 35.671L47.7282 42.7975C44.1546 44.5182 42.3678 45.3785 41.6149 44.5687C40.8619 43.7589 41.8498 42.0393 43.8254 38.6002L63.3987 4.52823ZM36.4883 5.88337C37.9053 6.86254 38.6138 7.35212 38.6983 8.28469C38.7828 9.21726 38.0978 9.9022 36.7279 11.2721L26.8284 21.1716C25.4951 22.5049 24.8284 23.1716 24.8284 24C24.8284 24.8284 25.4951 25.4951 26.8284 26.8284L36.7279 36.7279C38.0978 38.0978 38.7828 38.7828 38.6983 39.7153C38.6138 40.6479 37.9053 41.1375 36.4883 42.1166L36.4883 42.1167C27.9157 48.0404 16.0743 47.187 8.44365 39.5564C-0.147884 30.9648 -0.147884 17.0352 8.44365 8.44367C16.0743 0.813034 27.9157 -0.0403984 36.4883 5.88337ZM131.506 23.2808C132.105 22.5617 131.951 21.7145 131.641 20.0201C129.768 9.76971 120.791 2.00001 110 2.00001C97.8497 2.00001 88 11.8498 88 24C88 34.7914 95.7697 43.768 106.02 45.6409C107.714 45.9505 108.562 46.1053 109.281 45.5057C110 44.906 110 43.9373 110 42V28C110 26.1144 110 25.1716 110.586 24.5858C111.172 24 112.114 24 114 24H128C129.937 24 130.906 24 131.506 23.2808Z" fill="#FFBF00"/>
</svg>
